<svg width="63" height="30" xmlns="http://www.w3.org/2000/svg" xmlns:xlink="http://www.w3.org/1999/xlink" xml:space="preserve" overflow="hidden"><defs><clipPath id="clip0"><rect x="640" y="402" width="63" height="30"/></clipPath></defs><g clip-path="url(#clip0)" transform="translate(-640 -402)"><path d="M495.111 259.683 483.679 248.261 495.111 236.839 497.934 239.662 489.344 248.261 497.934 256.86 495.111 259.683Z" fill="#FFFFFF" transform="matrix(1 0 0 1.00344 163.5 166.512)"/><path d="M521.959 259.683 519.136 256.86 527.725 248.261 519.136 239.662 521.959 236.839 533.391 248.261 521.959 259.683Z" fill="#FFFFFF" transform="matrix(1 0 0 1.00344 163.5 166.512)"/><path d="M501.829 259.595 511.407 236.485 515.106 238.017 505.529 261.128Z" fill="#FFFFFF" transform="matrix(1 0 0 1.00344 163.5 166.512)"/><path d="M468.493 212.223 468.493 274.288 548.577 274.288 548.577 212.223ZM537.565 218.229C538.671 218.229 539.567 219.125 539.567 220.232 539.567 221.338 538.671 222.234 537.565 222.234 536.459 222.234 535.563 221.338 535.563 220.232 535.563 219.125 536.459 218.229 537.565 218.229ZM530.558 218.229C531.664 218.229 532.56 219.125 532.56 220.232 532.56 221.338 531.664 222.234 530.558 222.234 529.452 222.234 528.556 221.338 528.556 220.232 528.556 219.125 529.452 218.229 530.558 218.229ZM523.55 218.229C524.657 218.229 525.553 219.125 525.553 220.232 525.553 221.338 524.657 222.234 523.55 222.234 522.444 222.234 521.548 221.338 521.548 220.232 521.548 219.125 522.444 218.229 523.55 218.229ZM542.57 268.282 474.499 268.282 474.499 228.24 542.57 228.24Z" fill="#FFFFFF" transform="matrix(1 0 0 1.00344 163.5 166.512)"/></g></svg>